HIERARCHY
ROOT Hips
{
	OFFSET -3.958830 18.904000 13.208200
	CHANNELS 6 Xposition Yposition Zposition Zrotation Yrotation Xrotation 
	JOINT LHipJoint
	{
		OFFSET 0.000000 0.000000 0.000000
		CHANNELS 3 Zrotation Yrotation Xrotation
		JOINT LeftUpLeg
		{
			OFFSET 1.800000 -1.400000 0.085000
			CHANNELS 3 Zrotation Yrotation Xrotation
			JOINT LeftLeg
			{
				OFFSET 2.215000 -6.000000 0.000000
				CHANNELS 3 Zrotation Yrotation Xrotation
				JOINT LeftFoot
				{
					OFFSET 2.500000 -6.900000 0.000000
					CHANNELS 3 Zrotation Yrotation Xrotation
					JOINT LeftToeBase
					{
						OFFSET 0.200000 -0.500000 1.950000
						CHANNELS 3 Zrotation Yrotation Xrotation
						End Site
						{
							OFFSET 0.000000 0.000000 0.000000
						}
					}
				}
			}
		}
	}
	JOINT RHipJoint
	{
		OFFSET 0.000000 0.000000 0.000000
		CHANNELS 3 Zrotation Yrotation Xrotation
		JOINT RightUpLeg
		{
			OFFSET -1.800000 -1.400000 0.085000
			CHANNELS 3 Zrotation Yrotation Xrotation
			JOINT RightLeg
			{
				OFFSET -2.215000 -6.000000 0.000000
				CHANNELS 3 Zrotation Yrotation Xrotation
				JOINT RightFoot
				{
					OFFSET -2.500000 -6.900000 0.000000
					CHANNELS 3 Zrotation Yrotation Xrotation
					JOINT RightToeBase
					{
						OFFSET -0.200000 -0.500000 1.950000
						CHANNELS 3 Zrotation Yrotation Xrotation
						End Site
						{
							OFFSET 0.000000 0.000000 0.000000
						}
					}
				}
			}
		}
	}
	JOINT LowerBack
	{
		OFFSET 0.000000 0.000000 0.000000
		CHANNELS 3 Zrotation Yrotation Xrotation
		JOINT Spine
		{
			OFFSET -0.087000 1.940000 -0.288900
			CHANNELS 3 Zrotation Yrotation Xrotation
			JOINT Spine1
			{
				OFFSET 0.000000 1.950000 0.060000
				CHANNELS 3 Zrotation Yrotation Xrotation
				JOINT Neck
				{
					OFFSET 0.000000 0.000000 0.000000
					CHANNELS 3 Zrotation Yrotation Xrotation
					JOINT Neck1
					{
						OFFSET 0.000000 1.600000 0.340000
						CHANNELS 3 Zrotation Yrotation Xrotation
						JOINT Head
						{
							OFFSET 0.000000 1.667000 -0.240000
							CHANNELS 3 Zrotation Yrotation Xrotation
							End Site
							{
								OFFSET 0.000000 0.000000 0.000000
							}
						}
					}
				}
				JOINT LeftShoulder
				{
					OFFSET 0.000000 0.000000 0.000000
					CHANNELS 3 Zrotation Yrotation Xrotation
					JOINT LeftArm
					{
						OFFSET 2.700000 1.550000 -0.730000
						CHANNELS 3 Zrotation Yrotation Xrotation
						JOINT LeftForeArm
						{
							OFFSET 5.450000 0.000000 0.000000
							CHANNELS 3 Zrotation Yrotation Xrotation
							JOINT LeftHand
							{
								OFFSET 3.450000 0.000000 0.000000
								CHANNELS 3 Zrotation Yrotation Xrotation
								JOINT LeftHandIndex1
								{
									OFFSET 0.750000 0.000000 0.000000
									CHANNELS 3 Zrotation Yrotation Xrotation
									End Site
									{
										OFFSET 0.000000 0.000000 0.000000
									}
								}
							}
						}
					}
				}
				JOINT RightShoulder
				{
					OFFSET 0.000000 0.000000 0.000000
					CHANNELS 3 Zrotation Yrotation Xrotation
					JOINT RightArm
					{
						OFFSET -2.700000 1.550000 -0.730000
						CHANNELS 3 Zrotation Yrotation Xrotation
						JOINT RightForeArm
						{
							OFFSET -5.450000 0.000000 0.000000
							CHANNELS 3 Zrotation Yrotation Xrotation
							JOINT RightHand
							{
								OFFSET -3.450000 0.000000 0.000000
								CHANNELS 3 Zrotation Yrotation Xrotation
								JOINT RightHandIndex1
								{
									OFFSET -0.750000 0.000000 0.000000
									CHANNELS 3 Zrotation Yrotation Xrotation
									End Site
									{
										OFFSET 0.000000 0.000000 0.000000
									}
								}
							}
						}
					}
				}
			}
		}
	}
}
MOTION
Frames: 13
Frame Time: 0.016667
-0.463430 17.434710 -3.702000 -10.149836 -31.064023 -3.723283 -15.736733 15.125480 3.849080 17.222725 -2.031614 4.990324 -13.019702 7.655255 7.270677 0.590245 6.041903 2.517863 0.554670 0.282880 0.666330 17.607609 -8.987039 2.478796 -5.466812 -1.010825 -10.981416 6.977028 -3.794076 3.064630 -0.723513 -1.879753 3.706758 -0.251900 -0.506040 0.202330 -1.174372 -8.181720 -8.360166 -4.484221 -3.615300 35.561736 6.344836 -2.058869 -6.166541 4.923487 -3.169027 -15.474986 -39.169833 25.023657 58.684316 4.368830 10.484510 -29.210750 -29.256253 -9.358483 8.034585 -56.896813 -12.078798 -3.579051 120.715355 -64.179615 -111.869498 -3.417852 2.008240 1.148640 -0.616390 0.717920 0.023180 24.023095 8.458133 7.630153 60.685196 -19.822727 -15.763081 14.481601 -7.352941 -1.084963 2.739372 -0.376162 0.127630 0.008920 -0.254150 -0.292860 
-0.520510 17.397340 -3.693430 -9.708112 -32.305708 -3.350743 -15.682966 14.944574 3.702050 16.158816 -1.666840 5.356902 -12.140811 7.485789 7.247693 0.527752 5.830280 2.567527 0.629090 0.376270 0.741280 17.681076 -9.021778 2.743209 -4.468137 -0.731730 -9.352223 4.778752 -3.069224 -1.362190 -0.817714 -1.943879 3.674845 -0.194980 -0.558170 0.201140 -1.369676 -7.617077 -8.372472 -3.950350 -3.303105 32.992395 5.682162 -1.705206 -4.887198 3.918262 -2.620645 -16.065056 -38.597473 26.300623 62.579092 4.231020 11.754230 -30.689690 -31.874855 -11.008171 8.911958 -54.958351 -11.835887 -4.438025 121.456700 -62.202631 -110.133820 -3.413007 1.965340 1.184640 -0.643420 0.771690 0.021800 28.285389 9.936446 7.450504 58.902962 -19.123494 -13.553982 11.611699 -9.452891 -0.376821 2.767007 -0.368054 0.136930 0.021550 -0.290410 -0.315800 
-0.555130 17.391920 -3.706470 -8.958205 -33.306781 -4.256010 -15.635353 14.916528 3.528761 15.117322 -1.216341 5.750435 -11.005263 7.550239 8.686065 0.528126 5.667216 2.606933 0.684840 0.478630 0.759740 17.731270 -9.114762 2.870948 -4.534254 -0.805133 -8.207758 3.990529 -2.932651 -3.217406 -0.892547 -2.094419 3.631879 -0.155590 -0.594000 0.222230 -1.487618 -7.268263 -8.341783 -4.504337 -2.727006 32.547216 5.051993 -1.567153 -2.391811 3.326847 -2.419298 -16.631305 -37.186837 26.084047 64.584548 2.159140 12.826500 -32.425890 -33.043312 -13.478656 9.992288 -52.625377 -13.120405 -6.001854 121.588700 -60.437377 -107.869709 -3.438835 1.920216 1.169660 -0.648660 0.822680 0.050890 30.061351 12.558224 7.976856 58.274060 -16.788431 -12.808261 11.589340 -7.749105 -0.333212 2.735572 -0.455869 0.183420 0.011340 -0.332130 -0.295480 
-0.572770 17.407690 -3.738520 -7.860380 -33.314961 -5.745886 -15.535845 14.917042 3.383291 14.238286 -0.946958 5.589517 -10.130338 7.715791 10.914679 0.513986 5.590151 2.634299 0.668790 0.484900 0.737320 17.802394 -9.329926 2.897577 -5.425333 -1.064687 -7.851171 3.762949 -3.033456 -3.177397 -0.900095 -2.190447 3.620434 -0.160830 -0.572680 0.221430 -1.721121 -6.857312 -8.250207 -5.143795 -2.393639 33.889053 3.850367 -1.836053 -0.273876 2.802309 -2.548791 -17.184766 -36.344445 25.305481 63.870846 1.522780 13.182340 -33.611070 -32.413619 -15.959035 11.047576 -51.370388 -15.136783 -7.547460 122.155217 -58.492362 -106.409331 -3.500881 1.881253 1.145360 -0.632660 0.816090 0.053840 29.947289 14.965395 8.584130 59.180295 -14.186053 -13.386438 11.931984 -2.746215 -0.348792 2.668941 -0.533528 0.190560 0.027610 -0.323350 -0.278420 
-0.586960 17.420890 -3.778690 -7.077530 -33.112304 -6.952132 -15.443043 14.991059 3.253272 13.747085 -0.892698 4.844913 -9.192740 7.932140 13.850531 0.541526 5.572398 2.659913 0.659350 0.483200 0.698640 17.855813 -9.553144 2.851426 -6.255061 -1.274519 -8.293360 3.928930 -3.187340 -1.735158 -0.856604 -2.215340 3.631522 -0.169440 -0.529610 0.227880 -1.911651 -6.602087 -8.142210 -5.509519 -2.357026 35.941021 2.506178 -2.282250 2.041416 2.505607 -3.365752 -17.413216 -36.049534 23.664776 59.503618 1.368870 12.722290 -32.675470 -30.195644 -17.779343 11.593451 -50.898350 -18.105079 -8.476690 122.928256 -56.228618 -105.230099 -3.535251 1.956343 1.072710 -0.601190 0.775190 0.085680 27.775667 17.031688 9.317584 60.701362 -11.597331 -15.500704 13.730963 5.385102 -0.535739 2.588874 -0.706147 0.213140 0.011000 -0.337380 -0.238300 
-0.602750 17.446780 -3.829180 -5.859370 -32.880698 -8.219105 -15.396915 15.125451 3.175210 13.072775 -1.044305 3.411229 -8.610712 8.189558 17.207892 0.530559 5.669647 2.635021 0.606340 0.429060 0.623360 17.862290 -9.731718 2.723656 -7.398488 -1.495678 -9.433342 4.344297 -3.438134 0.627304 -0.772003 -2.189523 3.653504 -0.186200 -0.464820 0.232180 -1.945761 -6.573802 -8.054489 -6.336332 -1.836315 38.356075 1.404510 -2.169785 3.885451 2.835727 -4.050488 -17.416605 -35.700548 21.833238 55.535278 -0.321020 11.832450 -31.019730 -28.401723 -18.935231 11.498812 -50.101085 -21.486585 -9.478352 122.026973 -54.973762 -102.038118 -3.611150 1.931264 1.014780 -0.552850 0.717230 0.102170 24.898735 18.674152 10.240059 62.468920 -9.945585 -19.002453 17.932395 15.140165 -0.454758 2.481121 -0.863205 0.202240 0.019510 -0.302960 -0.207310 
-0.607870 17.455280 -3.891630 -4.332169 -31.952822 -9.907065 -15.337613 15.210057 3.091559 12.164374 -1.475198 1.760476 -7.836988 8.434540 21.302529 0.534110 5.875520 2.583913 0.529800 0.331750 0.525030 17.888417 -9.919917 2.582954 -9.047245 -1.880483 -10.353549 4.832425 -3.767362 3.003867 -0.672531 -2.259511 3.639219 -0.220190 -0.365400 0.233340 -2.062525 -6.527394 -7.914670 -7.295085 -1.881892 42.189479 0.022924 -2.819476 5.597900 2.649881 -5.833864 -16.650018 -36.977703 19.639770 46.665771 -0.501650 10.216490 -30.790900 -24.509185 -18.209338 10.240173 -50.143395 -25.977046 -9.089808 121.575490 -52.905847 -99.321436 -3.660690 2.027881 0.932450 -0.498540 0.606550 0.100000 20.884090 18.378779 10.349668 63.729367 -7.859875 -22.692041 26.596460 26.171775 0.993333 2.402930 -1.081592 0.184480 0.025030 -0.239190 -0.170620 
-0.612380 17.438750 -3.938550 -2.942558 -30.367221 -10.148303 -15.223753 15.132825 3.039270 11.178539 -2.267568 -1.029111 -7.304964 8.553414 25.134759 0.500406 6.065048 2.553319 0.448330 0.246400 0.372180 17.963052 -10.166676 2.492054 -10.821782 -2.169592 -12.632126 5.401960 -4.038471 5.326839 -0.547559 -2.327637 3.622194 -0.216270 -0.203730 0.204810 -2.402111 -6.139380 -7.737713 -6.442576 -3.240367 44.980648 -2.141842 -4.588763 5.700497 2.082745 -8.173014 -15.673134 -38.747920 17.405854 35.773959 1.528640 7.810230 -28.173380 -21.161263 -15.507114 8.388539 -50.721980 -28.926612 -7.032648 121.292724 -51.389812 -97.673263 -3.687463 2.147606 0.827390 -0.418600 0.456920 0.136100 18.601882 15.707090 9.883895 63.689316 -7.842097 -24.287463 39.292478 37.767052 5.805511 2.324844 -1.347622 0.131690 0.075900 -0.173250 -0.108010 
-0.621110 17.407850 -3.973070 -1.527884 -29.171533 -9.939977 -15.089265 14.878954 3.001650 10.099640 -3.006766 -3.247975 -6.903776 8.518413 27.811041 0.425133 6.191540 2.511093 0.454510 0.257210 0.297150 18.073124 -10.437660 2.478915 -12.837955 -2.453094 -15.411245 6.645893 -4.476477 7.527901 -0.484088 -2.484450 3.531601 -0.155540 -0.101640 0.213560 -2.858884 -5.357691 -7.587880 -4.607439 -4.942824 46.453107 -5.153720 -6.484449 6.064151 1.500728 -9.693241 -14.794469 -39.246889 16.074744 29.113574 2.384370 6.158470 -26.929150 -18.666327 -13.379734 6.879419 -50.593296 -31.079477 -5.232696 121.090404 -48.977589 -95.001008 -3.684933 2.296756 0.759590 -0.353540 0.370880 0.175920 17.211055 13.068365 8.898723 62.370961 -7.388983 -22.690808 51.294533 43.100934 11.506079 2.283572 -1.548511 0.106700 0.112180 -0.139540 -0.069010 
-0.618640 17.346610 -3.983750 -0.924071 -28.152271 -8.783187 -14.892341 14.470464 2.882482 9.311838 -3.533923 -5.260453 -5.717511 8.132516 29.820306 0.311153 6.170719 2.526259 0.474750 0.275430 0.269360 18.258222 -10.800531 2.589797 -14.401363 -2.588992 -18.953064 8.040679 -5.041583 9.849495 -0.441884 -2.687606 3.409359 -0.091140 -0.019590 0.214610 -3.558544 -4.036502 -7.430038 -0.014242 -7.656370 47.041370 -9.877388 -8.932837 5.590474 1.582750 -10.910651 -13.493592 -38.775221 14.956196 24.490326 1.968250 4.971970 -26.067260 -16.420549 -10.193869 5.107868 -50.752669 -32.017455 -2.626614 121.174535 -47.387672 -93.412281 -3.661284 2.430012 0.709500 -0.295810 0.302770 0.208220 14.852681 8.985763 7.184966 61.738140 -6.799730 -19.778860 60.747957 42.323958 15.293401 2.267166 -1.668501 0.073650 0.161550 -0.121060 -0.049860 
-0.607940 17.280150 -3.974430 -0.385248 -27.308559 -7.425828 -14.678308 13.933417 2.692818 8.566683 -3.675180 -6.467768 -4.502202 7.498225 30.167338 0.174909 5.916978 2.593330 0.522110 0.327460 0.285760 18.489890 -11.177303 2.804429 -16.162245 -2.706302 -22.600591 9.857217 -5.851536 12.228470 -0.445614 -3.036410 3.198676 -0.020520 -0.001480 0.229510 -4.386556 -2.355338 -7.314493 5.554276 -10.799961 46.493489 -15.786715 -11.839138 5.348076 2.145582 -11.637436 -12.414096 -38.065134 15.196282 22.089788 0.901080 4.960530 -25.659190 -15.919997 -8.436500 3.916744 -48.376753 -31.382220 -1.962288 123.054471 -45.012692 -92.641466 -3.644326 2.583717 0.672930 -0.265930 0.274190 0.214100 13.256110 5.767355 6.055918 60.185232 -6.802590 -16.624120 70.293533 41.638647 19.501163 2.238182 -1.810925 0.070540 0.167990 -0.115850 -0.048100 
-0.587460 17.214490 -3.979180 0.432101 -26.756509 -6.910797 -14.550097 13.545944 2.530782 7.788142 -3.738778 -7.109281 -3.049473 6.855054 30.672591 0.071382 5.708037 2.654740 0.587580 0.403140 0.342900 18.648624 -11.425732 3.009823 -17.869338 -2.874837 -25.702298 11.045638 -6.673731 14.655126 -0.479362 -3.399873 3.008736 0.048170 -0.016860 0.240190 -4.921535 -1.101102 -7.277963 9.001985 -12.981418 46.516220 -20.478595 -13.828560 6.079431 2.994921 -12.068141 -11.495699 -36.574624 15.635884 21.536785 -1.399250 5.785080 -26.833490 -17.277528 -8.638154 2.905210 -43.962369 -30.699429 -2.921459 126.558050 -41.733007 -92.733706 -3.621367 2.694694 0.666250 -0.251810 0.284880 0.225400 12.719396 5.114552 6.151083 57.238000 -6.868270 -14.236501 82.095289 43.860628 26.647755 2.196509 -1.962148 0.069100 0.182050 -0.141090 -0.061460 
-0.570070 17.132020 -3.986000 0.843470 -25.806087 -6.156774 -14.477200 13.250402 2.377589 7.755443 -3.875559 -7.981031 -1.948143 6.348350 31.102817 -0.022264 5.598877 2.664774 0.599190 0.412940 0.340990 18.770117 -11.506781 3.211976 -19.473365 -3.036197 -28.311268 12.181241 -7.504857 16.651042 -0.499440 -3.800291 2.812635 0.077190 -0.005860 0.270260 -5.283184 -0.295324 -7.272954 12.293618 -15.201846 46.014902 -24.031992 -15.452191 7.174785 3.934626 -12.367464 -11.440427 -35.946510 15.919750 21.109453 -2.780960 5.972010 -26.052450 -17.670877 -9.648415 2.718563 -40.388946 -29.222403 -4.652262 128.913968 -38.263491 -91.598332 -3.642296 2.782775 0.653100 -0.219090 0.271410 0.218050 11.195260 5.729413 6.995691 54.683457 -7.325905 -12.628128 94.520960 46.376347 35.478198 2.141414 -2.095429 0.068560 0.171320 -0.116050 -0.068930 
